<svg xmlns="http://www.w3.org/2000/svg" xmlns:xlink="http://www.w3.org/1999/xlink" width="368" height="80" viewBox="0 0 92 20">
    <defs>
        <path id="a" d="M0 .161h19.855v19.598H0z"/>
        <path id="c" d="M.078.165h10.506V19.76H.078z"/>
        <path id="e" d="M.23.167h8.547V20H.23z"/>
        <path id="g" d="M.02.165h9.344V19.76H.021z"/>
    </defs>
    <g fill="none" fill-rule="evenodd">
        <g>
            <mask id="b" fill="#fff">
                <use xlink:href="#a"/>
            </mask>
            <path fill="#D91A5D" d="M11.69 18.376L1.4 8.221a4.678 4.678 0 0 1 0-6.677 4.828 4.828 0 0 1 6.766 0l10.288 10.155a4.678 4.678 0 0 1 0 6.677 4.828 4.828 0 0 1-6.764 0" mask="url(#b)"/>
        </g>
        <g transform="translate(39.185)">
            <mask id="d" fill="#fff">
                <use xlink:href="#c"/>
            </mask>
            <path fill="#D91A5D" d="M7.958.165L5.33 14.861 2.705.165H.078L3.58 19.76h3.502L10.584.165z" mask="url(#d)"/>
        </g>
        <g transform="translate(54.944)">
            <mask id="f" fill="#fff">
                <use xlink:href="#e"/>
            </mask>
            <path fill="#D91A5D" d="M8.777 2.754V.167H.23V20h8.547v-2.587H2.794v-6.036h5.983V8.79H2.794V2.754z" mask="url(#f)"/>
        </g>
        <path fill="#D91A5D" d="M73.26 17.447V.426h-2.556V20h8.518v-2.553z"/>
        <g transform="translate(82.63)">
            <mask id="h" fill="#fff">
                <use xlink:href="#g"/>
            </mask>
            <path fill="#D91A5D" d="M6.816 15.318a2.076 2.076 0 0 1-2.073 2.079h-.101a2.076 2.076 0 0 1-2.073-2.08V4.608c0-1.149.928-2.08 2.073-2.08h.101c1.145 0 2.073.931 2.073 2.08v10.71zM4.804.165H4.58A4.567 4.567 0 0 0 .021 4.74v10.446a4.567 4.567 0 0 0 4.56 4.574h.223a4.567 4.567 0 0 0 4.56-4.574V4.739A4.568 4.568 0 0 0 4.804.165z" mask="url(#h)"/>
        </g>
        <path fill="#D91A5D" d="M28.963 5.107a4.683 4.683 0 0 1-4.685 4.68 4.683 4.683 0 0 1-4.685-4.68A4.683 4.683 0 0 1 24.278.426a4.683 4.683 0 0 1 4.685 4.68"/>
    </g>
</svg>
